<svg width="80" height="50" viewBox="0 0 80 50" fill="none" xmlns="http://www.w3.org/2000/svg">
<path d="M4.716 5.484L1.8 5.052V3.252H12.132V5.052L8.568 5.484V27.876L17.856 27.552L19.98 21.504L22.176 21.828L20.916 30H1.728V28.236L4.716 27.876V5.484ZM28.6844 6.42C27.9164 6.42 27.3404 6.204 26.9564 5.772C26.5724 5.34 26.3804 4.788 26.3804 4.116C26.3804 3.348 26.6084 2.712 27.0644 2.208C27.5444 1.704 28.1924 1.452 29.0084 1.452C29.8244 1.452 30.4244 1.668 30.8084 2.1C31.1924 2.532 31.3844 3.084 31.3844 3.756C31.3844 4.572 31.1444 5.22 30.6644 5.7C30.2084 6.18 29.5604 6.42 28.7204 6.42H28.6844ZM27.2444 12.792L24.5084 12.144V10.236L30.0884 9.552H30.1604L30.9884 10.2V27.948L33.8684 28.236V30H24.3284V28.236L27.2444 27.912V12.792ZM39.0527 3.144L36.1367 2.748V1.2L41.9327 0.515998H42.0047L42.7967 1.056V27.948L45.8567 28.236V30H36.1367V28.236L39.0527 27.912V3.144ZM51.041 3.144L48.125 2.748V1.2L53.921 0.515998H53.993L54.785 1.056V27.948L57.845 28.236V30H48.125V28.236L51.041 27.912V3.144ZM60.4013 19.956C60.4013 17.796 60.8453 15.924 61.7333 14.34C62.6213 12.756 63.7853 11.556 65.2253 10.74C66.6893 9.9 68.2493 9.48 69.9053 9.48C72.9293 9.48 75.1973 10.44 76.7093 12.36C78.2453 14.28 79.0133 16.8 79.0133 19.92C79.0133 22.104 78.5693 23.988 77.6813 25.572C76.7933 27.156 75.6173 28.356 74.1533 29.172C72.7133 29.988 71.1653 30.396 69.5093 30.396C66.4853 30.396 64.2053 29.436 62.6693 27.516C61.1573 25.596 60.4013 23.076 60.4013 19.956ZM69.7253 28.344C71.3813 28.344 72.6533 27.66 73.5413 26.292C74.4293 24.924 74.8733 22.896 74.8733 20.208C74.8733 17.544 74.4653 15.432 73.6493 13.872C72.8333 12.312 71.5253 11.532 69.7253 11.532C68.0693 11.532 66.7853 12.216 65.8733 13.584C64.9853 14.952 64.5413 16.98 64.5413 19.668C64.5413 22.332 64.9613 24.444 65.8013 26.004C66.6413 27.564 67.9493 28.344 69.7253 28.344Z" fill="#4542E1"/>
<path d="M2.445 39.175C2.125 39.175 1.885 39.085 1.725 38.905C1.565 38.725 1.485 38.495 1.485 38.215C1.485 37.895 1.58 37.63 1.77 37.42C1.97 37.21 2.24 37.105 2.58 37.105C2.92 37.105 3.17 37.195 3.33 37.375C3.49 37.555 3.57 37.785 3.57 38.065C3.57 38.405 3.47 38.675 3.27 38.875C3.08 39.075 2.81 39.175 2.46 39.175H2.445ZM1.845 41.83L0.705 41.56V40.765L3.03 40.48H3.06L3.405 40.75V48.145L4.605 48.265V49H0.63V48.265L1.845 48.13V41.83ZM6.57012 41.83L5.49012 41.56V40.75L7.63512 40.48H7.68012L7.99512 40.75V41.38L7.98012 41.74C8.34012 41.42 8.81512 41.13 9.40512 40.87C9.99512 40.61 10.5601 40.48 11.1001 40.48C11.7301 40.48 12.2151 40.6 12.5551 40.84C12.9051 41.08 13.1501 41.45 13.2901 41.95C13.4301 42.44 13.5001 43.105 13.5001 43.945V48.145L14.5501 48.25V49H10.9951V48.265L11.9251 48.145V43.93C11.9251 43.34 11.8851 42.88 11.8051 42.55C11.7251 42.21 11.5751 41.96 11.3551 41.8C11.1351 41.63 10.8151 41.545 10.3951 41.545C10.0351 41.545 9.65012 41.635 9.24012 41.815C8.83012 41.995 8.46512 42.205 8.14512 42.445V48.13L9.16512 48.265V49H5.62512V48.265L6.57012 48.13V41.83ZM18.1961 49.15C17.6261 49.15 17.2011 49.02 16.9211 48.76C16.6411 48.5 16.5011 48.055 16.5011 47.425V41.665H15.4211V40.99C15.4711 40.98 15.6111 40.945 15.8411 40.885C16.0711 40.825 16.2261 40.77 16.3061 40.72C16.4661 40.63 16.5911 40.45 16.6811 40.18C16.7611 39.99 16.8561 39.685 16.9661 39.265C17.0761 38.845 17.1411 38.595 17.1611 38.515H18.0461L18.0761 40.675H20.5811V41.665H18.0761V46.27C18.0761 46.84 18.0911 47.24 18.1211 47.47C18.1611 47.7 18.2361 47.85 18.3461 47.92C18.4661 47.99 18.6661 48.025 18.9461 48.025C19.2161 48.025 19.5111 47.99 19.8311 47.92C20.1611 47.85 20.4161 47.775 20.5961 47.695L20.8211 48.37C20.5811 48.55 20.1911 48.725 19.6511 48.895C19.1211 49.065 18.6361 49.15 18.1961 49.15ZM25.4295 49.165C24.2195 49.165 23.2945 48.77 22.6545 47.98C22.0245 47.19 21.7095 46.135 21.7095 44.815C21.7095 43.945 21.8745 43.18 22.2045 42.52C22.5345 41.86 22.9945 41.35 23.5845 40.99C24.1845 40.63 24.8645 40.45 25.6245 40.45C26.5545 40.45 27.2745 40.71 27.7845 41.23C28.3045 41.74 28.5795 42.475 28.6095 43.435C28.6095 44.045 28.5745 44.51 28.5045 44.83H23.3445C23.3645 45.82 23.5945 46.62 24.0345 47.23C24.4745 47.83 25.0995 48.13 25.9095 48.13C26.3095 48.13 26.7245 48.06 27.1545 47.92C27.5945 47.77 27.9345 47.595 28.1745 47.395L28.4595 48.055C28.1695 48.355 27.7395 48.615 27.1695 48.835C26.5995 49.055 26.0195 49.165 25.4295 49.165ZM26.9595 44.035C26.9895 43.825 27.0045 43.61 27.0045 43.39C26.9945 42.74 26.8545 42.23 26.5845 41.86C26.3245 41.48 25.9095 41.29 25.3395 41.29C24.7595 41.29 24.2945 41.5 23.9445 41.92C23.6045 42.34 23.4095 43.045 23.3595 44.035H26.9595ZM29.9286 48.265L31.0536 48.175V41.83L29.9736 41.56V40.75L32.0436 40.48H32.0736L32.4036 40.75V41.02L32.3586 42.19H32.4036C32.5036 42.02 32.6836 41.8 32.9436 41.53C33.2036 41.26 33.5386 41.015 33.9486 40.795C34.3586 40.565 34.8036 40.45 35.2836 40.45C35.4836 40.45 35.6486 40.475 35.7786 40.525V42.205C35.7086 42.155 35.5936 42.11 35.4336 42.07C35.2836 42.02 35.1136 41.995 34.9236 41.995C34.0936 41.995 33.3236 42.25 32.6136 42.76V48.16L34.5186 48.28V49H29.9286V48.265ZM36.7688 46.75C36.7688 45.81 37.2388 45.12 38.1788 44.68C39.1188 44.23 40.3088 43.99 41.7488 43.96V43.54C41.7488 43.07 41.6988 42.7 41.5988 42.43C41.4988 42.16 41.3238 41.965 41.0738 41.845C40.8338 41.715 40.4888 41.65 40.0388 41.65C39.5288 41.65 39.0688 41.725 38.6588 41.875C38.2588 42.015 37.8588 42.19 37.4588 42.4L37.0837 41.62C37.2138 41.51 37.4538 41.365 37.8038 41.185C38.1538 41.005 38.5588 40.845 39.0188 40.705C39.4788 40.565 39.9388 40.495 40.3988 40.495C41.1088 40.495 41.6688 40.595 42.0788 40.795C42.4988 40.985 42.7988 41.295 42.9788 41.725C43.1588 42.155 43.2488 42.73 43.2488 43.45V48.265H44.1338V48.925C43.9338 48.975 43.6788 49.025 43.3688 49.075C43.0688 49.125 42.8038 49.15 42.5738 49.15C42.2938 49.15 42.1038 49.105 42.0038 49.015C41.9038 48.935 41.8538 48.75 41.8538 48.46V47.965C41.5538 48.265 41.1838 48.54 40.7438 48.79C40.3138 49.04 39.8238 49.165 39.2738 49.165C38.5538 49.165 37.9538 48.96 37.4738 48.55C37.0038 48.13 36.7688 47.53 36.7688 46.75ZM39.9188 48.145C40.1788 48.145 40.4788 48.065 40.8188 47.905C41.1588 47.745 41.4688 47.555 41.7488 47.335V44.755C40.6588 44.755 39.8338 44.925 39.2738 45.265C38.7238 45.595 38.4488 46.03 38.4488 46.57C38.4488 47.11 38.5788 47.51 38.8388 47.77C39.1088 48.02 39.4688 48.145 39.9188 48.145ZM44.997 44.89C44.997 44.06 45.157 43.31 45.477 42.64C45.807 41.97 46.287 41.44 46.917 41.05C47.557 40.65 48.322 40.45 49.212 40.45C49.642 40.45 50.012 40.49 50.322 40.57C50.632 40.65 51.002 40.76 51.432 40.9L51.372 43.21H50.397L50.067 41.68C50.007 41.4 49.627 41.26 48.927 41.26C48.227 41.26 47.672 41.545 47.262 42.115C46.862 42.675 46.662 43.475 46.662 44.515C46.662 45.695 46.887 46.595 47.337 47.215C47.797 47.825 48.392 48.13 49.122 48.13C49.542 48.13 49.937 48.065 50.307 47.935C50.687 47.805 51.012 47.65 51.282 47.47L51.567 48.07C51.297 48.35 50.897 48.605 50.367 48.835C49.847 49.055 49.317 49.165 48.777 49.165C47.957 49.165 47.262 48.98 46.692 48.61C46.132 48.24 45.707 47.735 45.417 47.095C45.137 46.445 44.997 45.71 44.997 44.89ZM55.4324 49.15C54.8624 49.15 54.4374 49.02 54.1574 48.76C53.8774 48.5 53.7374 48.055 53.7374 47.425V41.665H52.6574V40.99C52.7074 40.98 52.8474 40.945 53.0774 40.885C53.3074 40.825 53.4624 40.77 53.5424 40.72C53.7024 40.63 53.8274 40.45 53.9174 40.18C53.9974 39.99 54.0924 39.685 54.2024 39.265C54.3124 38.845 54.3774 38.595 54.3974 38.515H55.2824L55.3124 40.675H57.8174V41.665H55.3124V46.27C55.3124 46.84 55.3274 47.24 55.3574 47.47C55.3974 47.7 55.4724 47.85 55.5824 47.92C55.7024 47.99 55.9024 48.025 56.1824 48.025C56.4524 48.025 56.7474 47.99 57.0674 47.92C57.3974 47.85 57.6524 47.775 57.8324 47.695L58.0574 48.37C57.8174 48.55 57.4274 48.725 56.8874 48.895C56.3574 49.065 55.8724 49.15 55.4324 49.15ZM60.7458 39.175C60.4258 39.175 60.1858 39.085 60.0258 38.905C59.8658 38.725 59.7858 38.495 59.7858 38.215C59.7858 37.895 59.8808 37.63 60.0708 37.42C60.2708 37.21 60.5408 37.105 60.8808 37.105C61.2208 37.105 61.4708 37.195 61.6308 37.375C61.7908 37.555 61.8708 37.785 61.8708 38.065C61.8708 38.405 61.7708 38.675 61.5708 38.875C61.3808 39.075 61.1108 39.175 60.7608 39.175H60.7458ZM60.1458 41.83L59.0058 41.56V40.765L61.3308 40.48H61.3608L61.7058 40.75V48.145L62.9058 48.265V49H58.9308V48.265L60.1458 48.13V41.83ZM63.2809 40.675H66.7609V41.38L65.6959 41.575L67.2109 45.895L67.8409 47.8L68.3809 45.955L69.8959 41.575L68.8759 41.38V40.675H71.9209V41.38L71.1409 41.575L68.2459 49.12H66.9709L63.9559 41.575L63.2809 41.38V40.675ZM76.1863 49.165C74.9763 49.165 74.0513 48.77 73.4113 47.98C72.7813 47.19 72.4663 46.135 72.4663 44.815C72.4663 43.945 72.6313 43.18 72.9613 42.52C73.2913 41.86 73.7513 41.35 74.3413 40.99C74.9413 40.63 75.6213 40.45 76.3813 40.45C77.3113 40.45 78.0313 40.71 78.5413 41.23C79.0613 41.74 79.3363 42.475 79.3663 43.435C79.3663 44.045 79.3313 44.51 79.2613 44.83H74.1013C74.1213 45.82 74.3513 46.62 74.7913 47.23C75.2313 47.83 75.8563 48.13 76.6663 48.13C77.0663 48.13 77.4813 48.06 77.9113 47.92C78.3513 47.77 78.6913 47.595 78.9313 47.395L79.2163 48.055C78.9263 48.355 78.4963 48.615 77.9263 48.835C77.3563 49.055 76.7763 49.165 76.1863 49.165ZM77.7163 44.035C77.7463 43.825 77.7613 43.61 77.7613 43.39C77.7513 42.74 77.6113 42.23 77.3413 41.86C77.0813 41.48 76.6663 41.29 76.0963 41.29C75.5163 41.29 75.0513 41.5 74.7013 41.92C74.3613 42.34 74.1663 43.045 74.1163 44.035H77.7163Z" fill="#AC0909"/>
</svg>
